<?xml version="1.0" encoding="UTF-8" standalone="no"?>
<!-- Created with Inkscape (http://www.inkscape.org/) -->

<svg
   width="256"
   height="256"
   viewBox="0 0 67.733332 67.733333"
   version="1.1"
   id="svg1"
   sodipodi:docname="dark.svg"
   inkscape:version="1.4.1-rc (06eac75fbf, 2025-03-29)"
   inkscape:export-filename="../33c1774b/icon.png"
   inkscape:export-xdpi="6"
   inkscape:export-ydpi="6"
   xmlns:inkscape="http://www.inkscape.org/namespaces/inkscape"
   xmlns:sodipodi="http://sodipodi.sourceforge.net/DTD/sodipodi-0.dtd"
   xmlns="http://www.w3.org/2000/svg"
   xmlns:svg="http://www.w3.org/2000/svg">
  <sodipodi:namedview
     id="namedview1"
     pagecolor="#ffffff"
     bordercolor="#000000"
     borderopacity="0.25"
     inkscape:showpageshadow="2"
     inkscape:pageopacity="0.0"
     inkscape:pagecheckerboard="0"
     inkscape:deskcolor="#d1d1d1"
     inkscape:document-units="mm"
     showgrid="false"
     inkscape:zoom="1.8973437"
     inkscape:cx="36.893685"
     inkscape:cy="113.05279"
     inkscape:window-width="1920"
     inkscape:window-height="961"
     inkscape:window-x="0"
     inkscape:window-y="0"
     inkscape:window-maximized="1"
     inkscape:current-layer="layer1">
    <inkscape:grid
       id="grid1"
       units="px"
       originx="0"
       originy="0"
       spacingx="1.0583333"
       spacingy="1.0583333"
       empcolor="#0099e5"
       empopacity="0.30196078"
       color="#0099e5"
       opacity="0.14901961"
       empspacing="8"
       enabled="true"
       visible="false" />
  </sodipodi:namedview>
  <defs
     id="defs1" />
  <g
     inkscape:label="Layer 1"
     inkscape:groupmode="layer"
     id="layer1">
    <rect
       style="fill:#090909;fill-opacity:1;stroke-width:0.352777"
       id="rect20"
       width="67.73333"
       height="67.73333"
       x="0"
       y="0"
       rx="10.666667"
       ry="10.666667" />
    <rect
       style="display:none;fill:#090909;fill-opacity:1;stroke-width:0.264583"
       id="rect2"
       width="67.73333"
       height="67.73333"
       x="0"
       y="0" />
    <g
       id="g6"
       inkscape:label="Z"
       style="display:none;stroke:none;stroke-width:1.05833;stroke-dasharray:none;stroke-opacity:1"
       transform="matrix(2.3750001,0,0,2.1111113,-46.566665,-39.863894)">
      <path
         style="fill:#ff2a3a;fill-opacity:1;stroke:none;stroke-width:1.08582;stroke-dasharray:none;stroke-opacity:1"
         d="m 40.926128,44.449997 c 1.407202,0 1.407202,-1.503947 1.407202,-1.503947 v -7.01842 l -4.45614,8.522367 z"
         id="path20"
         inkscape:label="right"
         sodipodi:nodetypes="ccccc" />
      <path
         style="fill:#ff2a3a;fill-opacity:1;stroke:none;stroke-width:1.08582;stroke-dasharray:none;stroke-opacity:1"
         d="m 26.8072,25.4 c -1.407202,0 -1.407202,1.503947 -1.407202,1.503947 v 6.962717 L 29.856138,25.4 Z"
         id="path5"
         inkscape:label="left"
         sodipodi:nodetypes="ccccc" />
      <path
         style="fill:#ff2a3a;fill-opacity:1;stroke:none;stroke-width:1.05833;stroke-dasharray:none;stroke-opacity:1"
         d="M 36.094734,25.4 25.399998,44.449997 h 6.238596 L 42.333329,25.4 Z"
         id="path4"
         inkscape:label="trunk"
         sodipodi:nodetypes="ccccc" />
    </g>
    <path
       id="rect21"
       style="fill:#ff2a3a;fill-opacity:1;stroke-width:0.264583"
       d="M 17.991667 13.758333 C 15.6464 13.758333 13.758333 15.6464 13.758333 17.991667 L 13.758333 29.633333 L 29.633333 13.758333 L 17.991667 13.758333 z M 46.566667 13.758333 L 13.758333 46.566667 L 13.758333 49.741667 C 13.758333 52.086933 15.6464 53.975 17.991667 53.975 L 21.166667 53.975 L 53.975 21.166667 L 53.975 17.991667 C 53.975 15.6464 52.086933 13.758333 49.741667 13.758333 L 46.566667 13.758333 z M 53.975 38.1 L 38.1 53.975 L 49.741667 53.975 C 52.086933 53.975 53.975 52.086933 53.975 49.741667 L 53.975 38.1 z " />
  </g>
</svg>
